# xmcd CD database file
#
# Track frame offsets:
#	150
#	24009
#	38655
#	79444
#	96450
#	123135
#	159063
#	178334
#	195165
#	215114
#	229423
#	242051
#
# Disc length: 3462 seconds
#
# Revision: 0
# Processed by: cddbd v1.5.2PL0 Copyright (c) Steve Scherf et al.
# Submitted via: CDex 1.70beta2
#
DISCID=960d840c
DTITLE=Varios Artistas - simply JAZZ and vocals cd 2
DYEAR=2005
DGENRE=Jazz
TTITLE0=Jimmy Smith - Moanin'
TTITLE1=kKing Peasure - All of me
TTITLE2=Sonny Stitt - Four
TTITLE3=Cab Calloway - I've got you under my skin
TTITLE4=Charles Mingus - Duke Ellington's sound of love
TTITLE5=Ella Fitzgerald . How high th moon
TTITLE6=Kai winding - Epistrophy
TTITLE7=Carmen McRae - Besame mucho
TTITLE8=Chick Corea - Moments notice
TTITLE9=Louis Armstrong - Just a gigolo
TTITLE10=Milen Davis and Clarck Terry - YardbirdSuite
TTITLE11=S. Vaughan and D. Gillespie - Body and soul
EXTD=YEAR: 2005
EXTT0=
EXTT1=
EXTT2=
EXTT3=
EXTT4=
EXTT5=
EXTT6=
EXTT7=
EXTT8=
EXTT9=
EXTT10=
EXTT11=
PLAYORDER=
